<mxfile host="app.diagrams.net" modified="2023-08-30T11:41:19.381Z" agent="Mozilla/5.0 (X11; Linux x86_64; rv:109.0) Gecko/20100101 Firefox/116.0" version="21.7.0" etag="eRQ5GMaxUFA6qpKI_wxc" type="github">
  <diagram name="Page-1" id="KSsnOPdigXh4JownXbVb">
    <mxGraphModel>
      <root>
        <mxCell id="0" />
        <mxCell id="1" parent="0" />
      </root>
    </mxGraphModel>
  </diagram>
</mxfile>
